<svg width="512" height="512" viewBox="0 0 512 512" xmlns="http://www.w3.org/2000/svg" role="img">
<title>BuildTrack logo mark</title>
<rect x="18" y="18" width="476" height="476" rx="96" fill="#F8FAFC" stroke="#C7D2E0" stroke-width="8"/>
<rect x="116" y="252" width="84" height="150" rx="12" fill="#1B2A4A"/>
<rect x="214" y="166" width="84" height="236" rx="12" fill="#1B2A4A"/>
<rect x="312" y="80" width="84" height="322" rx="12" fill="#1B2A4A"/>
<g fill="#E8920B">
<rect x="132" y="286" width="52" height="8" rx="4"/><rect x="132" y="316" width="52" height="8" rx="4"/><rect x="132" y="346" width="52" height="8" rx="4"/><rect x="132" y="376" width="52" height="8" rx="4"/>
<rect x="230" y="202" width="52" height="8" rx="4"/><rect x="230" y="232" width="52" height="8" rx="4"/><rect x="230" y="262" width="52" height="8" rx="4"/><rect x="230" y="292" width="52" height="8" rx="4"/><rect x="230" y="322" width="52" height="8" rx="4"/>
<rect x="328" y="116" width="52" height="8" rx="4"/><rect x="328" y="146" width="52" height="8" rx="4"/><rect x="328" y="176" width="52" height="8" rx="4"/><rect x="328" y="206" width="52" height="8" rx="4"/><rect x="328" y="236" width="52" height="8" rx="4"/><rect x="328" y="266" width="52" height="8" rx="4"/><rect x="328" y="296" width="52" height="8" rx="4"/>
<polygon points="396,72 432,42 432,102"/><rect x="432" y="42" width="36" height="8" rx="4"/><rect x="464" y="42" width="8" height="86" rx="4"/>
</g>
<rect x="78" y="420" width="360" height="10" rx="5" fill="#1B2A4A"/>
</svg>
