<svg width="64" height="64" viewBox="0 0 64 64" xmlns="http://www.w3.org/2000/svg">
<rect width="64" height="64" rx="12" fill="#1B2A4A"/>
<defs>
<linearGradient id="bar1" x1="0" y1="1" x2="0" y2="0">
<stop offset="0%" stop-color="#3B7DD8"/>
<stop offset="100%" stop-color="#6BA3E8"/>
</linearGradient>
<linearGradient id="bar2" x1="0" y1="1" x2="0" y2="0">
<stop offset="0%" stop-color="#4A8DE0"/>
<stop offset="100%" stop-color="#7BB5F0"/>
</linearGradient>
<linearGradient id="bar3" x1="0" y1="1" x2="0" y2="0">
<stop offset="0%" stop-color="#5A9DE8"/>
<stop offset="100%" stop-color="#8DC5F8"/>
</linearGradient>
</defs>
<!-- Three rising bars -->
<rect x="8" y="32" width="13" height="22" rx="2" fill="url(#bar1)"/>
<rect x="25" y="22" width="13" height="32" rx="2" fill="url(#bar2)"/>
<rect x="42" y="10" width="13" height="44" rx="2" fill="url(#bar3)"/>
<!-- Amber tick marks -->
<rect x="11" y="36" width="7" height="2" rx="1" fill="#E8920B" opacity="0.9"/>
<rect x="11" y="41" width="7" height="2" rx="1" fill="#E8920B" opacity="0.9"/>
<rect x="11" y="46" width="7" height="2" rx="1" fill="#E8920B" opacity="0.6"/>
<rect x="28" y="26" width="7" height="2" rx="1" fill="#E8920B" opacity="0.9"/>
<rect x="28" y="31" width="7" height="2" rx="1" fill="#E8920B" opacity="0.9"/>
<rect x="28" y="36" width="7" height="2" rx="1" fill="#E8920B" opacity="0.9"/>
<rect x="28" y="41" width="7" height="2" rx="1" fill="#E8920B" opacity="0.6"/>
<rect x="45" y="14" width="7" height="2" rx="1" fill="#E8920B" opacity="0.9"/>
<rect x="45" y="19" width="7" height="2" rx="1" fill="#E8920B" opacity="0.9"/>
<rect x="45" y="24" width="7" height="2" rx="1" fill="#E8920B" opacity="0.9"/>
<rect x="45" y="29" width="7" height="2" rx="1" fill="#E8920B" opacity="0.9"/>
<rect x="45" y="34" width="7" height="2" rx="1" fill="#E8920B" opacity="0.7"/>
<rect x="45" y="39" width="7" height="2" rx="1" fill="#E8920B" opacity="0.5"/>
<!-- Crane accent -->
<polygon points="55,9 59,5 59,13" fill="#E8920B"/>
<!-- Ground line -->
<rect x="5" y="56" width="54" height="2" rx="1" fill="rgba(255,255,255,0.2)"/>
</svg>
