<svg width="512" height="512" viewBox="0 0 512 512" xmlns="http://www.w3.org/2000/svg" role="img" aria-labelledby="buildtrack-logo-title">
  <title id="buildtrack-logo-title">BuildTrack logo mark</title>
  <defs>
    <linearGradient id="tile" x1="72" y1="48" x2="440" y2="464" gradientUnits="userSpaceOnUse">
      <stop offset="0" stop-color="#122A48"/>
      <stop offset="0.55" stop-color="#0D1E36"/>
      <stop offset="1" stop-color="#071423"/>
    </linearGradient>
    <linearGradient id="barA" x1="0" y1="1" x2="0" y2="0">
      <stop offset="0" stop-color="#2E7FD2"/>
      <stop offset="1" stop-color="#8FD0FF"/>
    </linearGradient>
    <linearGradient id="barB" x1="0" y1="1" x2="0" y2="0">
      <stop offset="0" stop-color="#3A92E6"/>
      <stop offset="1" stop-color="#A7DDFF"/>
    </linearGradient>
    <linearGradient id="amber" x1="0" y1="0" x2="1" y2="1">
      <stop offset="0" stop-color="#FFE07A"/>
      <stop offset="0.45" stop-color="#F5B731"/>
      <stop offset="1" stop-color="#E8920B"/>
    </linearGradient>
    <filter id="shadow" x="-20%" y="-20%" width="140%" height="150%">
      <feDropShadow dx="0" dy="18" stdDeviation="18" flood-color="#020617" flood-opacity="0.34"/>
    </filter>
  </defs>

  <rect x="24" y="24" width="464" height="464" rx="92" fill="url(#tile)"/>
  <rect x="24" y="24" width="464" height="464" rx="92" fill="none" stroke="url(#amber)" stroke-width="18"/>
  <rect x="48" y="48" width="416" height="416" rx="72" fill="none" stroke="#A7DDFF" stroke-opacity="0.18" stroke-width="3"/>

  <g filter="url(#shadow)">
    <rect x="104" y="262" width="82" height="128" rx="14" fill="url(#barA)"/>
    <rect x="215" y="182" width="82" height="208" rx="14" fill="url(#barB)"/>
    <rect x="326" y="96" width="82" height="294" rx="14" fill="url(#barB)"/>
  </g>

  <g fill="url(#amber)">
    <rect x="122" y="292" width="46" height="8" rx="4"/>
    <rect x="122" y="322" width="46" height="8" rx="4"/>
    <rect x="122" y="352" width="46" height="8" rx="4"/>
    <rect x="233" y="214" width="46" height="8" rx="4"/>
    <rect x="233" y="244" width="46" height="8" rx="4"/>
    <rect x="233" y="274" width="46" height="8" rx="4"/>
    <rect x="233" y="304" width="46" height="8" rx="4"/>
    <rect x="344" y="132" width="46" height="8" rx="4"/>
    <rect x="344" y="162" width="46" height="8" rx="4"/>
    <rect x="344" y="192" width="46" height="8" rx="4"/>
    <rect x="344" y="222" width="46" height="8" rx="4"/>
    <rect x="344" y="252" width="46" height="8" rx="4"/>
    <rect x="344" y="282" width="46" height="8" rx="4"/>
  </g>

  <path d="M392 88L432 54V122L392 88Z" fill="url(#amber)"/>
  <path d="M430 56H466M466 56V142M466 142H452" stroke="url(#amber)" stroke-width="9" stroke-linecap="round" stroke-linejoin="round"/>
  <rect x="76" y="420" width="360" height="12" rx="6" fill="#9BD7FF" opacity="0.82"/>
</svg>
